<?xml version="1.0" encoding="UTF-8"?>
<!DOCTYPE svg PUBLIC "-//W3C//DTD SVG 1.1//EN" "http://www.w3.org/Graphics/SVG/1.1/DTD/svg11.dtd">
<svg xmlns="http://www.w3.org/2000/svg" version="1.1" width="556px" height="90px" style="shape-rendering:geometricPrecision; text-rendering:geometricPrecision; image-rendering:optimizeQuality; fill-rule:evenodd; clip-rule:evenodd" xmlns:xlink="http://www.w3.org/1999/xlink">
<g><path style="opacity:1" fill="#fbfbfb" d="M -0.5,-0.5 C 184.833,-0.5 370.167,-0.5 555.5,-0.5C 555.5,29.5 555.5,59.5 555.5,89.5C 370.167,89.5 184.833,89.5 -0.5,89.5C -0.5,59.5 -0.5,29.5 -0.5,-0.5 Z"/></g>
<g><path style="opacity:1" fill="#0a0a0a" d="M 393.5,53.5 C 394.713,52.4253 396.213,51.7586 398,51.5C 399.681,51.6083 400.848,52.2749 401.5,53.5C 397.085,71.2262 385.752,78.0595 367.5,74C 352.906,68.6648 345.906,58.1648 346.5,42.5C 346.479,20.3534 357.479,9.52011 379.5,10C 391.701,11.0721 398.701,17.5721 400.5,29.5C 395.939,30.4203 393.105,28.7537 392,24.5C 383.736,15.6818 374.236,14.1818 363.5,20C 354.865,28.3777 352.032,38.5444 355,50.5C 359.268,64.8877 368.768,70.3877 383.5,67C 389.378,64.4189 392.712,59.9189 393.5,53.5 Z"/></g>
<g><path style="opacity:1" fill="#d9d7dd" d="M 124.5,5.5 C 123.198,7.0276 121.531,8.0276 119.5,8.5C 109.098,12.5692 102.098,19.9025 98.5,30.5C 97.8347,32.6979 97.1681,35.0312 96.5,37.5C 96.1667,36 95.8333,34.5 95.5,33C 95.8592,29.4279 96.5259,25.9279 97.5,22.5C 102.026,15.4773 108.026,9.9773 115.5,6C 118.482,5.50204 121.482,5.33537 124.5,5.5 Z"/></g>
<g><path style="opacity:1" fill="#979596" d="M 124.5,5.5 C 129.079,6.45591 133.079,8.45591 136.5,11.5C 141.221,16.0215 142.554,21.3549 140.5,27.5C 139.467,14.4637 132.467,8.13041 119.5,8.5C 121.531,8.0276 123.198,7.0276 124.5,5.5 Z"/></g>
<g><path style="opacity:1" fill="#010101" d="M 161.5,11.5 C 163.833,11.5 166.167,11.5 168.5,11.5C 168.17,30.0076 168.503,48.3409 169.5,66.5C 180.5,66.5 191.5,66.5 202.5,66.5C 202.5,68.8333 202.5,71.1667 202.5,73.5C 188.833,73.5 175.167,73.5 161.5,73.5C 161.5,52.8333 161.5,32.1667 161.5,11.5 Z"/></g>
<g><path style="opacity:1" fill="#030303" d="M 500.5,11.5 C 502.833,11.5 505.167,11.5 507.5,11.5C 507.5,14.1667 507.5,16.8333 507.5,19.5C 505.167,19.5 502.833,19.5 500.5,19.5C 500.5,16.8333 500.5,14.1667 500.5,11.5 Z"/></g>
<g><path style="opacity:1" fill="#2f1d17" d="M 12.5,13.5 C 12.5,12.5 12.5,11.5 12.5,10.5C 14.0418,9.69929 15.7085,9.36596 17.5,9.5C 18.0776,13.935 16.4109,15.2683 12.5,13.5 Z"/></g>
<g><path style="opacity:1" fill="#67686c" d="M 136.5,11.5 C 133.079,8.45591 129.079,6.45591 124.5,5.5C 121.482,5.33537 118.482,5.50204 115.5,6C 108.026,9.9773 102.026,15.4773 97.5,22.5C 101.261,14.2377 107.261,8.07105 115.5,4C 122.885,2.84627 129.552,4.51294 135.5,9C 136.252,9.67076 136.586,10.5041 136.5,11.5 Z"/></g>
<g><path style="opacity:1" fill="#5d5753" d="M 6.5,11.5 C 7.37644,11.3691 8.04311,11.7025 8.5,12.5C 9.02756,14.3361 9.69423,16.0028 10.5,17.5C 11.3627,19.4214 12.0293,21.4214 12.5,23.5C 9.45517,23.4921 6.45517,23.1587 3.5,22.5C 3.58747,25.5983 3.08747,25.9316 2,23.5C 0.976427,18.5482 2.47643,14.5482 6.5,11.5 Z"/></g>
<g><path style="opacity:1" fill="#707070" d="M 161.5,11.5 C 163.948,10.5269 166.615,10.1936 169.5,10.5C 169.5,29.1667 169.5,47.8333 169.5,66.5C 168.503,48.3409 168.17,30.0076 168.5,11.5C 166.167,11.5 163.833,11.5 161.5,11.5 Z"/></g>
<g><path style="opacity:1" fill="#b6a352" d="M 11.5,5.5 C 9.56356,7.24319 9.23023,9.24319 10.5,11.5C 11.1835,11.1373 11.8501,10.8039 12.5,10.5C 12.5,11.5 12.5,12.5 12.5,13.5C 10.8235,14.1834 10.1568,15.5168 10.5,17.5C 9.69423,16.0028 9.02756,14.3361 8.5,12.5C 8.04311,11.7025 7.37644,11.3691 6.5,11.5C 7.2471,8.63849 8.91377,6.63849 11.5,5.5 Z"/></g>
<g><path style="opacity:1" fill="#ebdc50" d="M 27.5,9.5 C 28.4922,12.7786 28.6588,16.1119 28,19.5C 24.4602,21.7262 20.6269,23.0595 16.5,23.5C 15.5,23.5 14.5,23.5 13.5,23.5C 13.1667,23.5 12.8333,23.5 12.5,23.5C 12.0293,21.4214 11.3627,19.4214 10.5,17.5C 10.1568,15.5168 10.8235,14.1834 12.5,13.5C 16.4109,15.2683 18.0776,13.935 17.5,9.5C 15.7085,9.36596 14.0418,9.69929 12.5,10.5C 11.8501,10.8039 11.1835,11.1373 10.5,11.5C 9.23023,9.24319 9.56356,7.24319 11.5,5.5C 17.7523,3.44118 23.0856,4.77451 27.5,9.5 Z"/></g>
<g><path style="opacity:1" fill="#769527" d="M 29.5,12.5 C 32.3824,17.2417 35.549,21.9083 39,26.5C 43.3702,30.7022 47.5368,35.0355 51.5,39.5C 49.9382,39.2671 48.6049,38.6005 47.5,37.5C 44.4575,33.4564 40.7908,30.1231 36.5,27.5C 34.6439,24.3711 32.6439,21.3711 30.5,18.5C 29.5344,16.604 29.2011,14.604 29.5,12.5 Z"/></g>
<g><path style="opacity:1" fill="#0d0d0d" d="M 220.5,27.5 C 228.406,26.1943 235.239,28.1943 241,33.5C 241.667,34.8333 242.333,36.1667 243,37.5C 243.333,47.5 243.667,57.5 244,67.5C 245.356,68.3802 246.856,68.7135 248.5,68.5C 248.057,74.5225 245.057,76.0225 239.5,73C 238.228,71.6932 237.228,70.1932 236.5,68.5C 228.005,75.2832 219.005,76.1165 209.5,71C 208.299,70.0975 207.465,68.9308 207,67.5C 204.405,59.3062 206.905,53.4728 214.5,50C 220.492,48.6675 226.492,47.3342 232.5,46C 236.292,43.9473 237.458,40.7806 236,36.5C 228.981,30.8872 222.315,31.2205 216,37.5C 215.506,39.1341 215.34,40.8008 215.5,42.5C 213.167,42.5 210.833,42.5 208.5,42.5C 208.95,34.576 212.95,29.576 220.5,27.5 Z"/></g>
<g><path style="opacity:1" fill="#050505" d="M 270.5,27.5 C 274.915,27.3054 279.249,27.8054 283.5,29C 286,30.1667 287.833,32 289,34.5C 290.443,47.4258 290.943,60.4258 290.5,73.5C 288.167,73.5 285.833,73.5 283.5,73.5C 283.667,61.8286 283.5,50.1619 283,38.5C 277.568,32.8577 271.401,32.0244 264.5,36C 262.959,37.5793 261.792,39.4127 261,41.5C 260.5,52.1615 260.333,62.8281 260.5,73.5C 258.167,73.5 255.833,73.5 253.5,73.5C 253.5,58.5 253.5,43.5 253.5,28.5C 255.833,28.5 258.167,28.5 260.5,28.5C 260.338,30.5273 260.505,32.5273 261,34.5C 263.393,31.0596 266.56,28.7262 270.5,27.5 Z"/></g>
<g><path style="opacity:1" fill="#090909" d="M 312.5,27.5 C 319.451,26.4276 325.285,28.4276 330,33.5C 330.494,31.8659 330.66,30.1992 330.5,28.5C 332.833,28.5 335.167,28.5 337.5,28.5C 337.667,44.5035 337.5,60.5035 337,76.5C 335.65,81.1849 332.817,84.6849 328.5,87C 320.354,89.2783 312.354,88.9449 304.5,86C 301.498,83.8381 299.498,81.0048 298.5,77.5C 300.743,76.5258 303.076,76.1924 305.5,76.5C 305.297,78.3904 305.963,79.8904 307.5,81C 313.833,84.3333 320.167,84.3333 326.5,81C 328.049,79.786 329.215,78.286 330,76.5C 330.667,72.8333 330.667,69.1667 330,65.5C 324.72,71.1702 318.22,73.0035 310.5,71C 303.607,68.0552 299.44,62.8885 298,55.5C 295.261,41.9699 300.095,32.6366 312.5,27.5 Z"/></g>
<g><path style="opacity:1" fill="#040404" d="M 409.5,11.5 C 411.833,11.5 414.167,11.5 416.5,11.5C 416.334,19.1739 416.5,26.8406 417,34.5C 425.424,25.9712 434.424,25.3045 444,32.5C 444.667,33.8333 445.333,35.1667 446,36.5C 446.5,48.8288 446.667,61.1622 446.5,73.5C 444.167,73.5 441.833,73.5 439.5,73.5C 439.667,61.8286 439.5,50.1619 439,38.5C 436.665,34.9992 433.332,33.3325 429,33.5C 423.406,33.7579 419.406,36.4245 417,41.5C 416.5,52.1615 416.333,62.8281 416.5,73.5C 414.167,73.5 411.833,73.5 409.5,73.5C 409.5,52.8333 409.5,32.1667 409.5,11.5 Z"/></g>
<g><path style="opacity:1" fill="#0b0b0b" d="M 467.5,27.5 C 476.083,25.7933 483.25,28.1266 489,34.5C 490.265,45.4283 490.932,56.4283 491,67.5C 492.356,68.3802 493.856,68.7135 495.5,68.5C 496.036,71.8648 494.703,73.8648 491.5,74.5C 487.126,73.9977 484.459,71.6644 483.5,67.5C 477.809,73.5119 470.809,75.6786 462.5,74C 453.601,70.1346 451.101,63.6346 455,54.5C 456.731,52.3834 458.898,50.8834 461.5,50C 467.76,48.3454 474.093,47.012 480.5,46C 483.349,43.4406 484.183,40.2739 483,36.5C 478.02,32.4075 472.52,31.5741 466.5,34C 463.679,36.1413 462.346,38.9746 462.5,42.5C 460.167,42.5 457.833,42.5 455.5,42.5C 455.799,38.8945 456.965,35.5612 459,32.5C 461.746,30.5446 464.58,28.8779 467.5,27.5 Z"/></g>
<g><path style="opacity:1" fill="#79af1c" d="M 27.5,9.5 C 28.9063,9.97306 29.573,10.9731 29.5,12.5C 29.2011,14.604 29.5344,16.604 30.5,18.5C 32.6439,21.3711 34.6439,24.3711 36.5,27.5C 28.7872,24.7168 25.2872,27.3835 26,35.5C 28.5029,37.4801 30.3362,39.8135 31.5,42.5C 31.5,43.1667 31.5,43.8333 31.5,44.5C 26.9674,41.4433 24.6341,37.1099 24.5,31.5C 22.2821,31.3862 20.2821,30.7196 18.5,29.5C 16.7202,28.0101 16.0535,26.0101 16.5,23.5C 20.6269,23.0595 24.4602,21.7262 28,19.5C 28.6588,16.1119 28.4922,12.7786 27.5,9.5 Z"/></g>
<g><path style="opacity:1" fill="#010101" d="M 500.5,28.5 C 502.833,28.5 505.167,28.5 507.5,28.5C 507.5,43.5 507.5,58.5 507.5,73.5C 505.167,73.5 502.833,73.5 500.5,73.5C 500.5,58.5 500.5,43.5 500.5,28.5 Z"/></g>
<g><path style="opacity:1" fill="#0b0b0b" d="M 533.5,27.5 C 541.852,25.9982 548.352,28.6648 553,35.5C 554.441,48.092 554.941,60.7586 554.5,73.5C 552.167,73.5 549.833,73.5 547.5,73.5C 547.667,62.1618 547.5,50.8284 547,39.5C 544.738,35.0687 541.071,33.0687 536,33.5C 529.611,33.8833 525.611,37.2166 524,43.5C 523.5,53.4944 523.334,63.4944 523.5,73.5C 521.5,73.5 519.5,73.5 517.5,73.5C 517.5,58.5 517.5,43.5 517.5,28.5C 519.5,28.5 521.5,28.5 523.5,28.5C 523.338,30.5273 523.505,32.5273 524,34.5C 526.825,31.524 529.992,29.1907 533.5,27.5 Z"/></g>
<g><path style="opacity:1" fill="#f8f8f8" d="M 312.5,33.5 C 322.085,31.7003 328.251,35.367 331,44.5C 332.01,50.0642 331.343,55.3975 329,60.5C 323.482,66.9205 316.982,68.0872 309.5,64C 303.836,56.0494 303.002,47.5494 307,38.5C 308.73,36.5981 310.563,34.9314 312.5,33.5 Z"/></g>
<g><path style="opacity:1" fill="#a7ca25" d="M 36.5,27.5 C 40.7908,30.1231 44.4575,33.4564 47.5,37.5C 47.5858,38.4959 47.2524,39.3292 46.5,40C 41.2944,40.1809 36.2944,41.0143 31.5,42.5C 30.3362,39.8135 28.5029,37.4801 26,35.5C 25.2872,27.3835 28.7872,24.7168 36.5,27.5 Z"/></g>
<g><path style="opacity:1" fill="#575557" d="M 119.5,8.5 C 132.467,8.13041 139.467,14.4637 140.5,27.5C 137.902,38.4342 131.568,46.4342 121.5,51.5C 120.566,50.4324 120.232,49.099 120.5,47.5C 122.38,47.7709 123.713,47.1042 124.5,45.5C 128.987,40.8401 132.487,35.5067 135,29.5C 135.667,27.5 135.667,25.5 135,23.5C 134.478,26.2813 133.311,28.6146 131.5,30.5C 134.869,20.5578 131.535,14.5578 121.5,12.5C 116.881,12.9431 113.048,14.9431 110,18.5C 106.749,21.9953 104.249,25.9953 102.5,30.5C 103.325,31.3857 104.325,31.719 105.5,31.5C 105.279,32.7348 104.612,33.7348 103.5,34.5C 103.942,35.7387 104.609,36.7387 105.5,37.5C 108.422,39.594 110.922,42.2607 113,45.5C 113.667,48.1667 113.667,50.8333 113,53.5C 112.861,56.4453 111.694,58.7786 109.5,60.5C 109.877,58.742 110.544,57.0754 111.5,55.5C 107.372,53.6021 103.372,51.4354 99.5,49C 98.2423,47.2591 97.2423,45.4258 96.5,43.5C 97.6266,42.8783 98.6266,42.045 99.5,41C 98.5442,37.6064 98.2108,34.1064 98.5,30.5C 102.098,19.9025 109.098,12.5692 119.5,8.5 Z"/></g>
<g><path style="opacity:1" fill="#c9c8cd" d="M 124.5,45.5 C 123.153,46.0283 121.819,46.195 120.5,46C 122.29,43.5087 124.457,41.342 127,39.5C 128.193,37.1136 129.36,34.7802 130.5,32.5C 130.328,31.5084 130.662,30.8417 131.5,30.5C 133.311,28.6146 134.478,26.2813 135,23.5C 135.667,25.5 135.667,27.5 135,29.5C 132.487,35.5067 128.987,40.8401 124.5,45.5 Z"/></g>
<g><path style="opacity:1" fill="#fafafb" d="M 131.5,30.5 C 130.662,30.8417 130.328,31.5084 130.5,32.5C 127.232,36.2712 123.732,39.9378 120,43.5C 117.118,37.1162 112.285,33.1162 105.5,31.5C 104.325,31.719 103.325,31.3857 102.5,30.5C 104.249,25.9953 106.749,21.9953 110,18.5C 113.048,14.9431 116.881,12.9431 121.5,12.5C 131.535,14.5578 134.869,20.5578 131.5,30.5 Z"/></g>
<g><path style="opacity:1" fill="#4f8817" d="M 18.5,29.5 C 20.2821,30.7196 22.2821,31.3862 24.5,31.5C 24.6341,37.1099 26.9674,41.4433 31.5,44.5C 31.5,44.8333 31.5,45.1667 31.5,45.5C 31.6309,46.3764 31.2975,47.0431 30.5,47.5C 29.7838,45.518 28.6171,43.8513 27,42.5C 26.2055,46.1717 27.5388,48.8384 31,50.5C 31.7805,51.9437 31.6139,53.277 30.5,54.5C 27.7432,52.0638 25.0765,49.7304 22.5,47.5C 22.4085,43.4599 21.2419,39.7932 19,36.5C 18.5034,34.1902 18.3367,31.8568 18.5,29.5 Z"/></g>
<g><path style="opacity:1" fill="#a7a71f" d="M 47.5,37.5 C 48.6049,38.6005 49.9382,39.2671 51.5,39.5C 54.4611,41.4121 56.4611,44.0787 57.5,47.5C 56.1667,47.5 54.8333,47.5 53.5,47.5C 51.9285,44.3663 49.2618,42.6997 45.5,42.5C 41.9093,43.4844 38.576,44.8178 35.5,46.5C 34.2921,45.7659 32.9587,45.4326 31.5,45.5C 31.5,45.1667 31.5,44.8333 31.5,44.5C 31.5,43.8333 31.5,43.1667 31.5,42.5C 36.2944,41.0143 41.2944,40.1809 46.5,40C 47.2524,39.3292 47.5858,38.4959 47.5,37.5 Z"/></g>
<g><path style="opacity:1" fill="#bea110" d="M 53.5,47.5 C 50.4816,47.3354 47.4816,47.502 44.5,48C 45.3802,49.3561 45.7135,50.8561 45.5,52.5C 42.811,50.3789 39.811,48.7122 36.5,47.5C 35.8333,47.5 35.5,47.1667 35.5,46.5C 38.576,44.8178 41.9093,43.4844 45.5,42.5C 49.2618,42.6997 51.9285,44.3663 53.5,47.5 Z"/></g>
<g><path style="opacity:1" fill="#777679" d="M 97.5,22.5 C 96.5259,25.9279 95.8592,29.4279 95.5,33C 95.8333,34.5 96.1667,36 96.5,37.5C 97.1681,35.0312 97.8347,32.6979 98.5,30.5C 98.2108,34.1064 98.5442,37.6064 99.5,41C 98.6266,42.045 97.6266,42.8783 96.5,43.5C 95.788,42.2613 94.788,41.7613 93.5,42C 87.4633,47.0792 83.4633,53.4126 81.5,61C 84.0769,71.7877 90.4102,74.7877 100.5,70C 102.703,67.6278 105.037,65.4611 107.5,63.5C 101.962,73.4408 93.9621,76.2741 83.5,72C 80.0829,67.6892 78.5829,62.8559 79,57.5C 79.8221,55.2115 80.4888,52.8782 81,50.5C 85.0099,45.6588 89.1766,40.9922 93.5,36.5C 93.1667,35.8333 92.8333,35.1667 92.5,34.5C 89.4645,36.5517 86.4645,38.5517 83.5,40.5C 85.8226,36.676 89.1559,34.3427 93.5,33.5C 93.2779,29.1576 94.6112,25.4909 97.5,22.5 Z"/></g>
<g><path style="opacity:1" fill="#7c7d81" d="M 105.5,31.5 C 112.285,33.1162 117.118,37.1162 120,43.5C 123.732,39.9378 127.232,36.2712 130.5,32.5C 129.36,34.7802 128.193,37.1136 127,39.5C 124.457,41.342 122.29,43.5087 120.5,46C 121.819,46.195 123.153,46.0283 124.5,45.5C 123.713,47.1042 122.38,47.7709 120.5,47.5C 120.232,49.099 120.566,50.4324 121.5,51.5C 120.909,55.5064 119.575,59.173 117.5,62.5C 116.778,62.0825 116.278,61.4158 116,60.5C 115.617,61.056 115.117,61.3893 114.5,61.5C 118.216,54.2437 118.383,46.9104 115,39.5C 112.371,38.3623 109.871,37.029 107.5,35.5C 106.287,35.7472 105.62,36.4138 105.5,37.5C 104.609,36.7387 103.942,35.7387 103.5,34.5C 104.612,33.7348 105.279,32.7348 105.5,31.5 Z"/></g>
<g><path style="opacity:1" fill="#928112" d="M 36.5,47.5 C 39.811,48.7122 42.811,50.3789 45.5,52.5C 45.5,52.8333 45.5,53.1667 45.5,53.5C 43.8212,53.2852 42.8212,53.9519 42.5,55.5C 41.8333,55.5 41.1667,55.5 40.5,55.5C 38.9814,52.9561 37.648,50.2895 36.5,47.5 Z"/></g>
<g><path style="opacity:1" fill="#747474" d="M 401.5,53.5 C 400.848,52.2749 399.681,51.6083 398,51.5C 396.213,51.7586 394.713,52.4253 393.5,53.5C 393.5,52.5 393.5,51.5 393.5,50.5C 396.5,50.5 399.5,50.5 402.5,50.5C 402.737,51.791 402.404,52.791 401.5,53.5 Z"/></g>
<g><path style="opacity:1" fill="#f7f7f7" d="M 482.5,50.5 C 483.477,53.2869 483.81,56.2869 483.5,59.5C 481.372,66.2425 476.705,69.5758 469.5,69.5C 462.358,69.1895 459.525,65.5228 461,58.5C 462.167,57.3333 463.333,56.1667 464.5,55C 470.399,53.0541 476.399,51.5541 482.5,50.5 Z"/></g>
<g><path style="opacity:1" fill="#ba7a10" d="M 53.5,47.5 C 54.8333,47.5 56.1667,47.5 57.5,47.5C 59.341,49.8485 60.6743,52.5152 61.5,55.5C 57.638,55.5868 53.638,55.9201 49.5,56.5C 48.3634,55.2112 47.0301,54.2112 45.5,53.5C 45.5,53.1667 45.5,52.8333 45.5,52.5C 45.7135,50.8561 45.3802,49.3561 44.5,48C 47.4816,47.502 50.4816,47.3354 53.5,47.5 Z"/></g>
<g><path style="opacity:1" fill="#727272" d="M 235.5,50.5 C 235.56,49.9569 235.893,49.6236 236.5,49.5C 237.803,52.6447 237.803,55.6447 236.5,58.5C 236.806,55.6146 236.473,52.9479 235.5,50.5 Z"/></g>
<g><path style="opacity:1" fill="#f6f6f6" d="M 235.5,50.5 C 236.473,52.9479 236.806,55.6146 236.5,58.5C 235.428,64.0734 232.095,67.5734 226.5,69C 215.383,70.5663 211.716,66.2329 215.5,56C 221.944,53.3448 228.61,51.5115 235.5,50.5 Z"/></g>
<g><path style="opacity:1" fill="#898989" d="M 482.5,50.5 C 482.56,49.9569 482.893,49.6236 483.5,49.5C 484.806,52.9798 484.806,56.3132 483.5,59.5C 483.81,56.2869 483.477,53.2869 482.5,50.5 Z"/></g>
<g><path style="opacity:1" fill="#7b5013" d="M 45.5,53.5 C 47.0301,54.2112 48.3634,55.2112 49.5,56.5C 50.8333,58.8333 52.1667,61.1667 53.5,63.5C 52.5,63.5 51.5,63.5 50.5,63.5C 49.8011,61.0052 48.8011,58.6719 47.5,56.5C 45.7839,56.3713 44.1172,56.038 42.5,55.5C 42.8212,53.9519 43.8212,53.2852 45.5,53.5 Z"/></g>
<g><path style="opacity:1" fill="#e1e2e6" d="M 107.5,63.5 C 107.427,61.9731 108.094,60.9731 109.5,60.5C 111.694,58.7786 112.861,56.4453 113,53.5C 113.667,50.8333 113.667,48.1667 113,45.5C 110.922,42.2607 108.422,39.594 105.5,37.5C 105.62,36.4138 106.287,35.7472 107.5,35.5C 109.871,37.029 112.371,38.3623 115,39.5C 118.383,46.9104 118.216,54.2437 114.5,61.5C 111.573,65.7672 108.24,69.7672 104.5,73.5C 95.7533,78.8836 87.0866,78.717 78.5,73C 76.0512,69.7634 74.7179,66.0968 74.5,62C 74.8261,56.8594 76.1594,52.0261 78.5,47.5C 79.4333,44.6298 81.1,42.2964 83.5,40.5C 86.4645,38.5517 89.4645,36.5517 92.5,34.5C 92.8333,35.1667 93.1667,35.8333 93.5,36.5C 89.1766,40.9922 85.0099,45.6588 81,50.5C 80.4888,52.8782 79.8221,55.2115 79,57.5C 78.5829,62.8559 80.0829,67.6892 83.5,72C 93.9621,76.2741 101.962,73.4408 107.5,63.5 Z"/></g>
<g><path style="opacity:1" fill="#fafafb" d="M 96.5,43.5 C 97.2423,45.4258 98.2423,47.2591 99.5,49C 103.372,51.4354 107.372,53.6021 111.5,55.5C 110.544,57.0754 109.877,58.742 109.5,60.5C 108.094,60.9731 107.427,61.9731 107.5,63.5C 105.037,65.4611 102.703,67.6278 100.5,70C 90.4102,74.7877 84.0769,71.7877 81.5,61C 83.4633,53.4126 87.4633,47.0792 93.5,42C 94.788,41.7613 95.788,42.2613 96.5,43.5 Z"/></g>
<g><path style="opacity:1" fill="#eeedee" d="M 103.5,39.5 C 106.455,39.9807 108.789,41.4807 110.5,44C 106.862,44.5152 104.529,43.0152 103.5,39.5 Z"/></g>
<g><path style="opacity:1" fill="#a3420b" d="M 61.5,55.5 C 63.3443,59.01 65.011,62.6767 66.5,66.5C 66.0377,67.8799 65.0377,68.5466 63.5,68.5C 62.1508,68.1543 60.8175,67.821 59.5,67.5C 58.1634,66.6851 57.1634,65.5185 56.5,64C 55.552,63.5172 54.552,63.3505 53.5,63.5C 52.1667,61.1667 50.8333,58.8333 49.5,56.5C 53.638,55.9201 57.638,55.5868 61.5,55.5 Z"/></g>
<g><path style="opacity:1" fill="#427419" d="M 31.5,45.5 C 32.9587,45.4326 34.2921,45.7659 35.5,46.5C 35.5,47.1667 35.8333,47.5 36.5,47.5C 37.648,50.2895 38.9814,52.9561 40.5,55.5C 39.475,55.8966 39.3083,56.5632 40,57.5C 42.2906,59.8248 44.6239,62.1581 47,64.5C 47.8077,66.5787 47.641,68.5787 46.5,70.5C 44.5413,68.7553 43.208,66.5886 42.5,64C 38.7343,63.2486 35.7343,61.2486 33.5,58C 27.3946,57.0613 23.7279,53.5613 22.5,47.5C 25.0765,49.7304 27.7432,52.0638 30.5,54.5C 31.6139,53.277 31.7805,51.9437 31,50.5C 27.5388,48.8384 26.2055,46.1717 27,42.5C 28.6171,43.8513 29.7838,45.518 30.5,47.5C 31.2975,47.0431 31.6309,46.3764 31.5,45.5 Z"/></g>
<g><path style="opacity:1" fill="#305919" d="M 13.5,23.5 C 14.5,23.5 15.5,23.5 16.5,23.5C 16.0535,26.0101 16.7202,28.0101 18.5,29.5C 18.3367,31.8568 18.5034,34.1902 19,36.5C 21.2419,39.7932 22.4085,43.4599 22.5,47.5C 23.7279,53.5613 27.3946,57.0613 33.5,58C 35.7343,61.2486 38.7343,63.2486 42.5,64C 43.208,66.5886 44.5413,68.7553 46.5,70.5C 47.641,68.5787 47.8077,66.5787 47,64.5C 44.6239,62.1581 42.2906,59.8248 40,57.5C 39.3083,56.5632 39.475,55.8966 40.5,55.5C 41.1667,55.5 41.8333,55.5 42.5,55.5C 44.1172,56.038 45.7839,56.3713 47.5,56.5C 48.8011,58.6719 49.8011,61.0052 50.5,63.5C 51.5,63.5 52.5,63.5 53.5,63.5C 54.552,63.3505 55.552,63.5172 56.5,64C 57.1634,65.5185 58.1634,66.6851 59.5,67.5C 62.6159,69.6882 65.6159,72.0215 68.5,74.5C 67.1779,74.33 66.0113,74.6634 65,75.5C 62.2047,73.7068 59.7047,71.5402 57.5,69C 54.8976,68.0229 52.3976,66.8563 50,65.5C 49.7991,68.7528 48.9657,71.7528 47.5,74.5C 46.5,74.5 45.5,74.5 44.5,74.5C 42.8866,71.8682 41.22,69.2016 39.5,66.5C 38.5375,69.4586 36.8708,71.7919 34.5,73.5C 33.8333,72.8333 33.1667,72.1667 32.5,71.5C 31.8386,68.2129 31.3386,64.8796 31,61.5C 26.1891,57.6941 22.5225,53.0274 20,47.5C 18.5753,39.2652 16.4086,31.2652 13.5,23.5 Z"/></g>
<g><path style="opacity:1" fill="#9ac44e" d="M 66.5,66.5 C 69.7539,68.6774 71.7539,71.6774 72.5,75.5C 71.0413,75.5674 69.7079,75.2341 68.5,74.5C 65.6159,72.0215 62.6159,69.6882 59.5,67.5C 60.8175,67.821 62.1508,68.1543 63.5,68.5C 65.0377,68.5466 66.0377,67.8799 66.5,66.5 Z"/></g>
<g><path style="opacity:1" fill="#eff6f0" d="M 44.5,74.5 C 41.0128,75.4671 37.6795,75.1337 34.5,73.5C 36.8708,71.7919 38.5375,69.4586 39.5,66.5C 41.22,69.2016 42.8866,71.8682 44.5,74.5 Z"/></g>
<g><path style="opacity:1" fill="#535357" d="M 117.5,62.5 C 111.746,75.5898 101.746,81.5898 87.5,80.5C 92.4889,79.8744 97.4889,78.7077 102.5,77C 103.823,76.1841 104.489,75.0174 104.5,73.5C 108.24,69.7672 111.573,65.7672 114.5,61.5C 115.117,61.3893 115.617,61.056 116,60.5C 116.278,61.4158 116.778,62.0825 117.5,62.5 Z"/></g>
<g><path style="opacity:1" fill="#474446" d="M 32.5,71.5 C 33.1667,72.1667 33.8333,72.8333 34.5,73.5C 37.6795,75.1337 41.0128,75.4671 44.5,74.5C 45.5,74.5 46.5,74.5 47.5,74.5C 47.6107,75.1174 47.944,75.6174 48.5,76C 50.8333,76.3333 53.1667,76.6667 55.5,77C 53.5156,78.8098 51.349,78.9765 49,77.5C 46.2767,79.054 43.4433,80.3873 40.5,81.5C 40.8346,80.336 40.8346,79.0026 40.5,77.5C 39.2519,78.0402 38.0852,78.7069 37,79.5C 33.8556,78.8313 32.0223,77.8313 31.5,76.5C 28.4102,78.1562 25.2436,78.8228 22,78.5C 21.5348,77.0692 20.7014,75.9025 19.5,75C 20.6086,74.3623 21.7753,73.8623 23,73.5C 25.7866,74.5174 28.62,74.6841 31.5,74C 32.2524,73.3292 32.5858,72.4959 32.5,71.5 Z"/></g>
<g><path style="opacity:1" fill="#6f7175" d="M 78.5,47.5 C 76.1594,52.0261 74.8261,56.8594 74.5,62C 74.7179,66.0968 76.0512,69.7634 78.5,73C 87.0866,78.717 95.7533,78.8836 104.5,73.5C 104.489,75.0174 103.823,76.1841 102.5,77C 97.4889,78.7077 92.4889,79.8744 87.5,80.5C 75.4705,75.9219 70.9705,67.2553 74,54.5C 75.0259,51.7613 76.5259,49.428 78.5,47.5 Z"/></g>
</svg>
