<svg version="1.1" id="Layer_1" xmlns="http://www.w3.org/2000/svg" xmlns:xlink="http://www.w3.org/1999/xlink" x="0px" y="0px"
	 width="100%" viewBox="0 0 565 89" enable-background="new 0 0 565 89" xml:space="preserve">
<path fill="#FDFDFD" opacity="1.000000" stroke="none" 
	d="
M566.000000,72.000000 
	C566.000000,77.994125 566.000000,83.988251 566.000000,90.000000 
	C423.312439,90.000000 280.624878,90.000000 137.624146,89.635361 
	C156.973923,87.059998 173.024170,71.987030 175.919220,51.550278 
	C179.186508,28.485813 164.112198,8.943394 146.917953,3.995746 
	C143.907257,3.129412 140.970764,2.005143 138.000000,1.000000 
	C280.666687,1.000000 423.333344,1.000000 566.000000,1.000000 
	C566.000000,15.088741 566.000000,29.075712 565.811523,43.411579 
	C565.622986,43.760475 565.182495,43.834637 565.145020,43.623077 
	C565.107483,43.411522 564.955261,43.009747 565.021851,42.639938 
	C561.789856,30.931038 548.769348,28.245487 538.663452,34.178001 
	C536.089233,31.005682 533.175049,31.966873 530.131470,33.273788 
	C530.023560,33.491615 530.121460,33.967815 530.042786,34.432686 
	C530.019287,46.607918 530.074402,58.318279 530.075012,70.464607 
	C532.659607,71.405411 535.298767,71.910240 538.363647,72.496521 
	C538.363647,63.681606 538.363647,55.879566 538.584351,47.814583 
	C540.767578,41.546818 545.196655,38.370529 550.486633,39.174278 
	C555.364990,39.915493 557.078979,42.751083 557.082947,50.107658 
	C557.086914,57.352055 557.083801,64.596451 557.083801,71.888245 
	C559.752258,71.888245 561.884583,71.888245 564.247681,71.961349 
	C564.478577,72.034462 564.947510,71.913246 565.206909,71.979851 
	C565.644287,72.030968 565.822144,72.015480 566.000000,72.000000 
M221.601547,19.164331 
	C219.020798,19.164331 216.440033,19.164331 213.679947,19.164331 
	C213.679947,36.356983 213.663818,53.087158 213.735291,69.816963 
	C213.738327,70.531502 214.551758,71.242577 215.912704,72.127762 
	C226.946915,72.066422 237.981110,72.005081 249.502792,72.063309 
	C249.655304,71.994507 249.807800,71.925705 250.739883,71.568329 
	C250.739883,69.147820 250.739883,66.727303 250.739883,63.812084 
	C240.896317,63.812084 231.530228,63.812084 221.856445,63.812084 
	C221.856445,48.857342 221.856445,34.420998 221.601547,19.164331 
M293.917694,34.902092 
	C293.970093,46.939129 294.022461,58.976170 294.274872,71.840950 
	C296.088898,71.913033 297.933350,72.205078 299.703491,71.960106 
	C300.531311,71.845535 301.215515,70.693146 302.174835,69.093384 
	C302.107086,62.726158 302.039307,56.358936 302.147095,49.273678 
	C302.212036,48.538750 302.277008,47.803818 302.795807,46.580032 
	C304.096161,42.047131 307.437531,39.832905 311.797943,39.185009 
	C315.787476,38.592216 318.809875,40.372635 320.787292,44.693752 
	C320.902222,45.452660 321.017120,46.211563 320.993500,47.902420 
	C321.044922,55.607792 321.096344,63.313160 321.366730,71.861000 
	C323.938782,71.861000 326.510834,71.861000 328.772888,71.861000 
	C328.772888,61.712444 328.772888,51.891068 328.764587,41.375359 
	C322.966736,30.476795 314.619263,28.289696 303.398987,33.823906 
	C299.907562,31.804140 297.187561,31.696539 293.986237,33.490528 
	C293.986237,33.490528 294.089172,33.975422 293.917694,34.902092 
M280.942719,72.045502 
	C282.695679,72.045502 284.448669,72.045502 285.823822,72.045502 
	C285.823822,61.281059 285.823822,51.169445 285.829254,40.357452 
	C282.887268,29.689648 264.605621,29.025578 257.944916,35.462624 
	C252.351425,40.868267 252.792572,43.893814 260.155029,47.087269 
	C263.741180,40.606480 267.908997,37.984837 272.816833,39.333538 
	C276.406677,40.320057 278.505127,42.476288 277.728790,46.856236 
	C273.189636,47.807228 268.731293,48.748554 264.269745,49.674316 
	C257.586578,51.061066 253.042404,56.267036 253.288971,62.270245 
	C253.535233,68.265564 258.239227,73.119102 265.192444,73.278908 
	C269.140076,73.369637 273.111603,71.705177 277.105682,71.027611 
	C278.017212,70.872978 279.066223,71.529160 280.942719,72.045502 
M457.618805,47.966831 
	C457.618805,55.890408 457.618805,63.813980 457.618805,72.547165 
	C460.752960,71.967491 463.294037,71.497513 465.982941,70.097099 
	C465.988495,62.433662 466.077118,54.769161 465.978546,47.107063 
	C465.854980,37.500256 459.579742,30.988407 450.067474,31.216858 
	C446.408691,31.304726 442.787445,32.956303 438.679871,34.016502 
	C438.679871,29.105757 438.679871,23.900974 438.679871,18.740915 
	C435.521210,18.740915 432.941162,18.740915 430.408936,18.740915 
	C430.408936,36.680115 430.408936,54.265320 430.408936,71.765923 
	C433.299500,71.765923 435.888214,71.765923 438.826233,71.765923 
	C438.826233,64.306694 438.739685,57.175266 438.852692,50.047009 
	C438.949036,43.970329 442.283173,40.036591 447.767639,39.161427 
	C452.831451,38.353382 455.780792,40.675011 457.618805,47.966831 
M513.722168,66.714584 
	C513.825745,67.139381 513.929321,67.564186 513.857178,68.734451 
	C513.924500,69.493294 513.991821,70.252144 514.267212,71.836838 
	C516.828369,71.237251 520.221313,74.147346 522.148071,69.096657 
	C522.083435,57.393845 522.018799,45.691036 522.064819,33.492760 
	C521.979858,33.346428 521.894897,33.200096 521.448975,32.331287 
	C519.023071,32.331287 516.597168,32.331287 513.918762,32.331287 
	C513.918762,36.023937 513.918762,39.172573 513.918762,42.321209 
	C513.918762,45.429016 513.918762,48.536827 513.918762,51.740196 
	C507.773163,50.155674 506.124115,48.090668 505.010712,42.608044 
	C504.505676,40.121109 503.472748,37.221451 501.687103,35.605198 
	C494.260071,28.882751 482.315277,30.301653 476.561157,35.844540 
	C470.761536,41.431282 471.519897,44.478260 479.294281,46.960258 
	C482.539032,40.537415 486.982147,37.867290 492.058807,39.426025 
	C495.656036,40.530510 497.422302,42.851486 496.835876,46.552128 
	C492.502350,47.302349 488.559906,47.727173 484.758789,48.702553 
	C478.876801,50.211880 473.775238,52.953671 472.479218,59.632545 
	C471.527588,64.536743 473.272766,68.689606 477.471954,71.232407 
	C483.150635,74.671143 489.187561,74.214058 495.124329,71.578102 
	C496.299927,71.056145 497.130035,69.007477 498.763611,71.612137 
	C499.199219,72.306755 504.237183,71.635780 505.086365,70.285927 
	C508.690979,64.555916 504.474579,58.235561 497.477081,58.203091 
	C495.936371,64.083595 492.370361,66.810997 486.260101,65.924149 
	C484.386719,65.652237 481.904327,63.863400 481.335663,62.207706 
	C480.916229,60.986519 482.738159,58.183643 484.272278,57.234665 
	C494.511292,50.900928 508.937439,55.341953 513.722168,66.714584 
M372.919037,60.479301 
	C372.919037,51.212292 372.919037,41.945286 372.919037,32.045624 
	C369.871826,33.312435 366.231903,29.635597 364.730438,34.640507 
	C364.677185,34.818050 362.866943,34.896477 362.411407,34.460808 
	C356.157166,28.479410 349.192383,30.924656 343.260651,33.991280 
	C334.978485,38.273056 333.643494,46.651024 334.534241,55.153934 
	C335.577301,65.111435 339.999176,70.597931 348.227020,72.592651 
	C353.798492,73.943367 359.204773,73.454964 364.020142,69.090973 
	C364.184082,74.648643 362.065247,78.139175 357.460175,79.747910 
	C352.022400,81.647545 346.734283,79.872093 343.081024,75.255104 
	C340.735413,75.972763 338.374939,76.694992 334.316681,77.936668 
	C337.327087,81.090843 339.295959,84.197807 342.114471,85.887436 
	C347.815369,89.304977 354.231567,88.933792 360.463409,87.252617 
	C367.018005,85.484367 371.022827,81.054184 372.029480,74.358871 
	C372.667786,70.113625 372.645203,65.769012 372.919037,60.479301 
M400.001678,19.519329 
	C392.216095,18.700684 386.822449,22.558310 382.671997,28.587233 
	C375.720123,38.685490 376.243866,55.834076 383.914001,65.220139 
	C390.592712,73.392944 399.643341,74.913025 409.273651,72.754021 
	C417.686646,70.867920 423.056946,65.321754 425.141083,56.567051 
	C422.343414,55.518604 419.800598,54.565666 417.338348,53.642918 
	C416.767303,54.574177 416.442657,54.968460 416.260864,55.420216 
	C413.425323,62.466930 409.787933,65.129158 402.889557,65.177750 
	C396.065918,65.225815 390.707458,62.073620 388.607544,55.676540 
	C387.344910,51.830132 386.956207,47.528381 387.029572,43.446609 
	C387.186646,34.703506 392.433655,28.215834 399.594543,27.065910 
	C408.377197,25.655554 412.607086,28.309750 416.657227,37.921906 
	C419.180603,36.746002 421.695526,35.574032 424.135101,34.437180 
	C422.028931,23.348482 412.350464,17.121935 400.001678,19.519329 
M513.919556,27.489758 
	C518.195251,30.087759 522.067261,29.607059 522.828918,25.977619 
	C523.231934,24.057007 522.601440,20.885963 521.255310,19.909605 
	C519.778503,18.838570 515.951294,18.740097 514.936218,19.851212 
	C513.537720,21.382051 513.815613,24.444447 513.919556,27.489758 
z"/>
<path fill="#1D3D3D" opacity="1.000000" stroke="none" 
	d="
M137.531342,1.000000 
	C140.970764,2.005143 143.907257,3.129412 146.917953,3.995746 
	C164.112198,8.943394 179.186508,28.485813 175.919220,51.550278 
	C173.024170,71.987030 156.973923,87.059998 137.155487,89.635361 
	C136.555557,90.000000 136.111099,90.000000 135.204010,89.769287 
	C134.437439,89.370316 134.133514,89.202057 133.371613,89.035812 
	C103.801491,89.036469 74.689323,89.020531 45.577286,89.074905 
	C44.050953,89.077751 42.525738,89.677917 41.000000,90.000000 
	C40.250000,90.000000 39.500000,90.000000 38.257027,89.644318 
	C18.623165,84.533455 6.239342,72.993652 1.769378,53.481693 
	C1.721641,53.273312 1.265492,53.158497 1.000000,53.000000 
	C1.000000,48.310745 1.000000,43.621487 1.358487,38.340401 
	C5.894536,18.250988 17.894396,6.503184 37.377495,2.719129 
	C38.005924,2.597074 38.463028,1.592940 39.000000,1.000000 
	C71.687561,1.000000 104.375122,1.000000 137.531342,1.000000 
M59.060307,72.715897 
	C60.082367,73.113533 61.104427,73.511169 62.787239,74.253105 
	C66.668121,73.746361 70.548996,73.239616 75.564552,72.584717 
	C67.494766,71.229240 68.135719,71.609985 71.758095,63.277939 
	C74.619354,65.376228 77.080063,67.782402 80.022308,69.160461 
	C82.687584,70.408798 85.877998,70.535957 89.625824,71.323166 
	C86.539719,66.682144 83.699944,63.552200 82.167900,59.877102 
	C78.662674,51.468719 73.844269,44.143829 67.608307,37.492928 
	C63.131290,32.718010 59.276108,27.294386 55.602764,21.850286 
	C52.011883,16.528397 46.179054,13.712507 41.283073,15.711757 
	C36.695580,17.585037 32.570877,25.504345 33.547352,30.564121 
	C38.056843,28.411482 42.443352,30.113676 43.825260,34.658943 
	C44.402054,36.556095 44.735424,38.531796 45.109779,40.485138 
	C46.454601,47.502148 48.425327,54.115025 54.625790,58.667110 
	C56.714527,60.200562 56.713577,67.793297 54.272511,70.001503 
	C51.598076,70.001503 48.923645,70.001503 46.249210,70.001503 
	C46.318214,70.916000 46.387215,71.830498 46.456215,72.744995 
	C49.634415,72.418312 52.812614,72.091621 56.728134,71.936455 
	C57.484600,71.951263 58.241062,71.966072 59.060307,72.715897 
M102.488861,69.136955 
	C111.680229,74.328308 116.282059,73.509209 123.458900,66.590958 
	C127.136383,63.045982 130.030884,58.689774 133.701477,55.136360 
	C137.480621,51.477875 142.056839,48.634480 145.778442,44.926708 
	C152.275253,38.454052 152.199448,29.242319 146.050827,23.096985 
	C139.903458,16.952900 130.754501,16.866915 124.099838,23.130768 
	C116.541077,30.245630 109.085197,37.473465 101.711197,44.779957 
	C93.899864,52.519772 94.027344,60.966148 102.488861,69.136955 
z"/>
<path fill="#FCFDFD" opacity="1.000000" stroke="none" 
	d="
M1.000000,53.468658 
	C1.265492,53.158497 1.721641,53.273312 1.769378,53.481693 
	C6.239342,72.993652 18.623165,84.533455 37.882027,89.644318 
	C25.740049,90.000000 13.480098,90.000000 1.000000,90.000000 
	C1.000000,77.980003 1.000000,65.958656 1.000000,53.468658 
z"/>
<path fill="#FCFCFC" opacity="1.000000" stroke="none" 
	d="
M38.531342,1.000000 
	C38.463028,1.592940 38.005924,2.597074 37.377495,2.719129 
	C17.894396,6.503184 5.894536,18.250988 1.358487,37.874283 
	C1.000000,25.739063 1.000000,13.478125 1.000000,1.000000 
	C13.353380,1.000000 25.708031,1.000000 38.531342,1.000000 
z"/>
<path fill="#718080" opacity="1.000000" stroke="none" 
	d="
M41.468658,90.000000 
	C42.525738,89.677917 44.050953,89.077751 45.577286,89.074905 
	C74.689323,89.020531 103.801491,89.036469 133.434937,89.273788 
	C133.956253,89.509743 134.000000,90.000000 134.000000,90.000000 
	C103.312439,90.000000 72.624878,90.000000 41.468658,90.000000 
z"/>
<path fill="#718080" opacity="1.000000" stroke="none" 
	d="
M565.182495,43.834637 
	C565.182495,43.834637 565.622986,43.760475 565.811523,43.880238 
	C566.000000,53.020893 566.000000,62.041790 566.000000,71.531342 
	C565.822144,72.015480 565.644287,72.030968 565.223206,71.758850 
	C564.980042,71.471237 564.912781,71.033165 564.960815,70.564560 
	C564.970642,61.714924 564.932373,53.333897 564.952454,44.669762 
	C565.068054,44.202644 565.125305,44.018639 565.182495,43.834637 
z"/>
<path fill="#103636" opacity="1.000000" stroke="none" 
	d="
M134.250000,90.000000 
	C134.000000,90.000000 133.956253,89.509743 133.892914,89.271774 
	C134.133514,89.202057 134.437439,89.370316 134.870697,89.769287 
	C135.000000,90.000000 134.500000,90.000000 134.250000,90.000000 
z"/>
<path fill="#204040" opacity="1.000000" stroke="none" 
	d="
M372.919037,60.974133 
	C372.645203,65.769012 372.667786,70.113625 372.029480,74.358871 
	C371.022827,81.054184 367.018005,85.484367 360.463409,87.252617 
	C354.231567,88.933792 347.815369,89.304977 342.114471,85.887436 
	C339.295959,84.197807 337.327087,81.090843 334.316681,77.936668 
	C338.374939,76.694992 340.735413,75.972763 343.081024,75.255104 
	C346.734283,79.872093 352.022400,81.647545 357.460175,79.747910 
	C362.065247,78.139175 364.184082,74.648643 364.020142,69.090973 
	C359.204773,73.454964 353.798492,73.943367 348.227020,72.592651 
	C339.999176,70.597931 335.577301,65.111435 334.534241,55.153934 
	C333.643494,46.651024 334.978485,38.273056 343.260651,33.991280 
	C349.192383,30.924656 356.157166,28.479410 362.411407,34.460808 
	C362.866943,34.896477 364.677185,34.818050 364.730438,34.640507 
	C366.231903,29.635597 369.871826,33.312435 372.919037,32.045624 
	C372.919037,41.945286 372.919037,51.212292 372.919037,60.974133 
M342.412994,48.877605 
	C342.612549,50.978149 342.802307,53.079681 343.013550,55.179047 
	C343.578064,60.788742 347.249573,64.678566 352.347382,65.080933 
	C358.796417,65.589958 363.231598,61.981232 363.971588,55.622719 
	C365.061890,46.254581 361.874725,40.145176 355.172028,39.229401 
	C350.924225,38.649036 347.312805,40.099739 344.884583,43.811073 
	C343.989868,45.178589 343.295502,46.677181 342.412994,48.877605 
z"/>
<path fill="#1F3E3E" opacity="1.000000" stroke="none" 
	d="
M521.954224,33.988220 
	C522.018799,45.691036 522.083435,57.393845 521.685608,69.712273 
	C518.835144,70.555588 516.447083,70.783287 514.059082,71.010986 
	C513.991821,70.252144 513.924500,69.493294 514.174133,68.206322 
	C514.247681,67.138069 514.004272,66.597946 513.760864,66.057831 
	C508.937439,55.341953 494.511292,50.900928 484.272278,57.234665 
	C482.738159,58.183643 480.916229,60.986519 481.335663,62.207706 
	C481.904327,63.863400 484.386719,65.652237 486.260101,65.924149 
	C492.370361,66.810997 495.936371,64.083595 497.477081,58.203091 
	C504.474579,58.235561 508.690979,64.555916 505.086365,70.285927 
	C504.237183,71.635780 499.199219,72.306755 498.763611,71.612137 
	C497.130035,69.007477 496.299927,71.056145 495.124329,71.578102 
	C489.187561,74.214058 483.150635,74.671143 477.471954,71.232407 
	C473.272766,68.689606 471.527588,64.536743 472.479218,59.632545 
	C473.775238,52.953671 478.876801,50.211880 484.758789,48.702553 
	C488.559906,47.727173 492.502350,47.302349 496.835876,46.552128 
	C497.422302,42.851486 495.656036,40.530510 492.058807,39.426025 
	C486.982147,37.867290 482.539032,40.537415 479.294281,46.960258 
	C471.519897,44.478260 470.761536,41.431282 476.561157,35.844540 
	C482.315277,30.301653 494.260071,28.882751 501.687103,35.605198 
	C503.472748,37.221451 504.505676,40.121109 505.010712,42.608044 
	C506.124115,48.090668 507.773163,50.155674 513.918762,51.740196 
	C513.918762,48.536827 513.918762,45.429016 513.918762,42.321209 
	C513.918762,39.172573 513.918762,36.023937 513.918762,32.331287 
	C516.597168,32.331287 519.023071,32.331287 521.492798,32.802231 
	C521.675842,33.511520 521.815063,33.749870 521.954224,33.988220 
z"/>
<path fill="#1E3E3E" opacity="1.000000" stroke="none" 
	d="
M400.266846,19.243187 
	C412.350464,17.121935 422.028931,23.348482 424.135101,34.437180 
	C421.695526,35.574032 419.180603,36.746002 416.657227,37.921906 
	C412.607086,28.309750 408.377197,25.655554 399.594543,27.065910 
	C392.433655,28.215834 387.186646,34.703506 387.029572,43.446609 
	C386.956207,47.528381 387.344910,51.830132 388.607544,55.676540 
	C390.707458,62.073620 396.065918,65.225815 402.889557,65.177750 
	C409.787933,65.129158 413.425323,62.466930 416.260864,55.420216 
	C416.442657,54.968460 416.767303,54.574177 417.338348,53.642918 
	C419.800598,54.565666 422.343414,55.518604 425.141083,56.567051 
	C423.056946,65.321754 417.686646,70.867920 409.273651,72.754021 
	C399.643341,74.913025 390.592712,73.392944 383.914001,65.220139 
	C376.243866,55.834076 375.720123,38.685490 382.671997,28.587233 
	C386.822449,22.558310 392.216095,18.700684 400.266846,19.243187 
z"/>
<path fill="#274545" opacity="1.000000" stroke="none" 
	d="
M457.787476,47.048729 
	C455.780792,40.675011 452.831451,38.353382 447.767639,39.161427 
	C442.283173,40.036591 438.949036,43.970329 438.852692,50.047009 
	C438.739685,57.175266 438.826233,64.306694 438.826233,71.765923 
	C435.888214,71.765923 433.299500,71.765923 430.408936,71.765923 
	C430.408936,54.265320 430.408936,36.680115 430.408936,18.740915 
	C432.941162,18.740915 435.521210,18.740915 438.679871,18.740915 
	C438.679871,23.900974 438.679871,29.105757 438.679871,34.016502 
	C442.787445,32.956303 446.408691,31.304726 450.067474,31.216858 
	C459.579742,30.988407 465.854980,37.500256 465.978546,47.107063 
	C466.077118,54.769161 465.988495,62.433662 465.474365,70.547836 
	C463.187805,70.998573 461.409882,70.998573 459.017456,70.998573 
	C459.017456,64.597359 459.121246,58.821945 458.961029,53.053864 
	C458.905182,51.042835 458.197479,49.049915 457.787476,47.048729 
z"/>
<path fill="#1F3E3E" opacity="1.000000" stroke="none" 
	d="
M280.051971,71.812164 
	C279.066223,71.529160 278.017212,70.872978 277.105682,71.027611 
	C273.111603,71.705177 269.140076,73.369637 265.192444,73.278908 
	C258.239227,73.119102 253.535233,68.265564 253.288971,62.270245 
	C253.042404,56.267036 257.586578,51.061066 264.269745,49.674316 
	C268.731293,48.748554 273.189636,47.807228 277.728790,46.856236 
	C278.505127,42.476288 276.406677,40.320057 272.816833,39.333538 
	C267.908997,37.984837 263.741180,40.606480 260.155029,47.087269 
	C252.792572,43.893814 252.351425,40.868267 257.944916,35.462624 
	C264.605621,29.025578 282.887268,29.689648 285.559357,41.018944 
	C285.289459,51.202793 285.289459,60.725147 285.289459,70.107826 
	C283.064880,70.831726 281.558441,71.321945 280.051971,71.812164 
M271.777252,55.142517 
	C269.567474,55.838211 267.043945,56.091301 265.244965,57.366493 
	C263.745575,58.429325 262.067139,60.895531 262.358917,62.364639 
	C262.652191,63.841293 265.151520,65.645569 266.909485,65.934372 
	C274.952423,67.255692 279.086609,62.476685 277.466736,54.116997 
	C275.843628,54.422722 274.220062,54.728542 271.777252,55.142517 
z"/>
<path fill="#1F3F3F" opacity="1.000000" stroke="none" 
	d="
M564.894104,44.952873 
	C564.932373,53.333897 564.970642,61.714924 564.765930,70.652664 
	C564.280762,71.380836 564.112061,71.607124 564.016846,71.888245 
	C561.884583,71.888245 559.752258,71.888245 557.083801,71.888245 
	C557.083801,64.596451 557.086914,57.352055 557.082947,50.107658 
	C557.078979,42.751083 555.364990,39.915493 550.486633,39.174278 
	C545.196655,38.370529 540.767578,41.546818 538.215027,48.026531 
	C537.288635,55.842602 536.952271,63.183781 536.582214,71.260429 
	C534.164917,70.798973 532.147217,70.413803 530.129517,70.028641 
	C530.074402,58.318279 530.019287,46.607918 530.200256,34.370804 
	C530.503174,33.754143 530.646179,33.622807 530.623657,33.581417 
	C530.520996,33.392445 530.371826,33.228748 530.239319,33.055962 
	C533.175049,31.966873 536.089233,31.005682 538.663452,34.178001 
	C548.769348,28.245487 561.789856,30.931038 564.800659,42.776093 
	C564.639893,43.838997 564.767029,44.395935 564.894104,44.952873 
z"/>
<path fill="#1E3E3E" opacity="1.000000" stroke="none" 
	d="
M321.147766,71.018532 
	C321.096344,63.313160 321.044922,55.607792 321.302277,47.224548 
	C321.324402,45.672939 321.037750,44.799206 320.751068,43.925472 
	C318.809875,40.372635 315.787476,38.592216 311.797943,39.185009 
	C307.437531,39.832905 304.096161,42.047131 302.274231,46.954166 
	C301.825653,48.216103 301.898621,49.103909 301.971558,49.991711 
	C302.039307,56.358936 302.107086,62.726158 301.707397,69.706947 
	C298.851624,70.551414 296.463226,70.782310 294.074829,71.013206 
	C294.022461,58.976170 293.970093,46.939129 294.165283,34.376671 
	C294.484222,33.761410 294.634857,33.627415 294.613586,33.589157 
	C294.506256,33.396450 294.354126,33.228706 294.217712,33.052200 
	C297.187561,31.696539 299.907562,31.804140 303.398987,33.823906 
	C314.619263,28.289696 322.966736,30.476795 328.517181,42.043983 
	C328.269775,51.918198 328.269775,61.123787 328.269775,71.018532 
	C325.339966,71.018532 323.243866,71.018532 321.147766,71.018532 
z"/>
<path fill="#1D3D3D" opacity="1.000000" stroke="none" 
	d="
M249.015320,71.943733 
	C237.981110,72.005081 226.946915,72.066422 215.462708,71.575867 
	C215.012695,54.134125 215.012695,37.244278 215.012695,19.984652 
	C217.893799,19.984652 219.875122,19.984652 221.856445,19.984652 
	C221.856445,34.420998 221.856445,48.857342 221.856445,63.812084 
	C231.530228,63.812084 240.896317,63.812084 250.739883,63.812084 
	C250.739883,66.727303 250.739883,69.147820 250.250870,71.565094 
	C249.513000,71.689148 249.264160,71.816444 249.015320,71.943733 
z"/>
<path fill="#1D3D3D" opacity="1.000000" stroke="none" 
	d="
M513.647461,27.170265 
	C513.815613,24.444447 513.537720,21.382051 514.936218,19.851212 
	C515.951294,18.740097 519.778503,18.838570 521.255310,19.909605 
	C522.601440,20.885963 523.231934,24.057007 522.828918,25.977619 
	C522.067261,29.607059 518.195251,30.087759 513.647461,27.170265 
z"/>
<path fill="#002C2C" opacity="1.000000" stroke="none" 
	d="
M221.729004,19.574492 
	C219.875122,19.984652 217.893799,19.984652 215.012695,19.984652 
	C215.012695,37.244278 215.012695,54.134125 215.000183,71.489624 
	C214.551758,71.242577 213.738327,70.531502 213.735291,69.816963 
	C213.663818,53.087158 213.679947,36.356983 213.679947,19.164331 
	C216.440033,19.164331 219.020798,19.164331 221.729004,19.574492 
z"/>
<path fill="#002C2C" opacity="1.000000" stroke="none" 
	d="
M321.257263,71.439766 
	C323.243866,71.018532 325.339966,71.018532 328.269775,71.018532 
	C328.269775,61.123787 328.269775,51.918198 328.521332,42.391151 
	C328.772888,51.891068 328.772888,61.712444 328.772888,71.861000 
	C326.510834,71.861000 323.938782,71.861000 321.257263,71.439766 
z"/>
<path fill="#002C2C" opacity="1.000000" stroke="none" 
	d="
M280.497345,71.928833 
	C281.558441,71.321945 283.064880,70.831726 285.289459,70.107826 
	C285.289459,60.725147 285.289459,51.202793 285.556641,41.369133 
	C285.823822,51.169445 285.823822,61.281059 285.823822,72.045502 
	C284.448669,72.045502 282.695679,72.045502 280.497345,71.928833 
z"/>
<path fill="#002C2C" opacity="1.000000" stroke="none" 
	d="
M457.703125,47.507782 
	C458.197479,49.049915 458.905182,51.042835 458.961029,53.053864 
	C459.121246,58.821945 459.017456,64.597359 459.017456,70.998573 
	C461.409882,70.998573 463.187805,70.998573 465.400452,71.013054 
	C463.294037,71.497513 460.752960,71.967491 457.618805,72.547165 
	C457.618805,63.813980 457.618805,55.890408 457.703125,47.507782 
z"/>
<path fill="#002C2C" opacity="1.000000" stroke="none" 
	d="
M530.075012,70.464600 
	C532.147217,70.413803 534.164917,70.798973 536.582214,71.260429 
	C536.952271,63.183781 537.288635,55.842602 537.994263,48.289474 
	C538.363647,55.879566 538.363647,63.681606 538.363647,72.496521 
	C535.298767,71.910240 532.659607,71.405411 530.075012,70.464600 
z"/>
<path fill="#002626" opacity="1.000000" stroke="none" 
	d="
M294.174866,71.427078 
	C296.463226,70.782310 298.851624,70.551414 301.602386,70.165817 
	C301.215515,70.693146 300.531311,71.845535 299.703491,71.960106 
	C297.933350,72.205078 296.088898,71.913033 294.174866,71.427078 
z"/>
<path fill="#002626" opacity="1.000000" stroke="none" 
	d="
M514.163147,71.423912 
	C516.447083,70.783287 518.835144,70.555588 521.584473,70.172485 
	C520.221313,74.147346 516.828369,71.237251 514.163147,71.423912 
z"/>
<path fill="#103636" opacity="1.000000" stroke="none" 
	d="
M320.769165,44.309612 
	C321.037750,44.799206 321.324402,45.672939 321.371552,46.758575 
	C321.017120,46.211563 320.902222,45.452660 320.769165,44.309612 
z"/>
<path fill="#002626" opacity="1.000000" stroke="none" 
	d="
M302.059326,49.632694 
	C301.898621,49.103909 301.825653,48.216103 302.047333,47.198593 
	C302.277008,47.803818 302.212036,48.538750 302.059326,49.632694 
z"/>
<path fill="#002626" opacity="1.000000" stroke="none" 
	d="
M513.741516,66.386200 
	C514.004272,66.597946 514.247681,67.138069 514.261963,67.833588 
	C513.929321,67.564186 513.825745,67.139381 513.741516,66.386200 
z"/>
<path fill="#103636" opacity="1.000000" stroke="none" 
	d="
M564.952454,44.669762 
	C564.767029,44.395935 564.639893,43.838997 564.734009,43.145905 
	C564.955261,43.009747 565.107483,43.411522 565.145020,43.623077 
	C565.125305,44.018639 565.068054,44.202644 564.952454,44.669762 
z"/>
<path fill="#002C2C" opacity="1.000000" stroke="none" 
	d="
M530.131470,33.273785 
	C530.371826,33.228748 530.520996,33.392445 530.623657,33.581417 
	C530.646179,33.622807 530.503174,33.754143 530.278931,33.905930 
	C530.121460,33.967815 530.023560,33.491615 530.131470,33.273785 
z"/>
<path fill="#002C2C" opacity="1.000000" stroke="none" 
	d="
M249.259064,72.003525 
	C249.264160,71.816444 249.513000,71.689148 249.861084,71.709381 
	C249.807800,71.925705 249.655304,71.994507 249.259064,72.003525 
z"/>
<path fill="#103636" opacity="1.000000" stroke="none" 
	d="
M564.247681,71.961349 
	C564.112061,71.607124 564.280762,71.380836 564.717896,71.121277 
	C564.912781,71.033165 564.980042,71.471237 564.963745,71.692245 
	C564.947510,71.913246 564.478577,72.034462 564.247681,71.961349 
z"/>
<path fill="#002626" opacity="1.000000" stroke="none" 
	d="
M522.009521,33.740490 
	C521.815063,33.749870 521.675842,33.511520 521.673279,33.163467 
	C521.894897,33.200096 521.979858,33.346428 522.009521,33.740490 
z"/>
<path fill="#002626" opacity="1.000000" stroke="none" 
	d="
M294.101990,33.271362 
	C294.354126,33.228706 294.506256,33.396450 294.613586,33.589157 
	C294.634857,33.627415 294.484222,33.761410 294.251038,33.913338 
	C294.089172,33.975422 293.986237,33.490528 294.101990,33.271362 
z"/>
<path fill="#FBFBFB" opacity="1.000000" stroke="none" 
	d="
M55.029503,70.148438 
	C56.713577,67.793297 56.714527,60.200562 54.625790,58.667110 
	C48.425327,54.115025 46.454601,47.502148 45.109779,40.485138 
	C44.735424,38.531796 44.402054,36.556095 43.825260,34.658943 
	C42.443352,30.113676 38.056843,28.411482 33.547352,30.564121 
	C32.570877,25.504345 36.695580,17.585037 41.283073,15.711757 
	C46.179054,13.712507 52.011883,16.528397 55.602764,21.850286 
	C59.276108,27.294386 63.131290,32.718010 67.608307,37.492928 
	C73.844269,44.143829 78.662674,51.468719 82.167900,59.877102 
	C83.699944,63.552200 86.539719,66.682144 89.625824,71.323166 
	C85.877998,70.535957 82.687584,70.408798 80.022308,69.160461 
	C77.080063,67.782402 74.619354,65.376228 71.758095,63.277939 
	C68.135719,71.609985 67.494766,71.229240 75.564552,72.584717 
	C70.548996,73.239616 66.668121,73.746361 62.550312,73.771774 
	C63.032383,73.020653 63.751385,72.750870 64.216911,72.576195 
	C63.782864,71.370079 63.353409,70.176743 63.271408,68.983086 
	C64.497154,68.904533 65.375443,68.826302 66.253738,68.748070 
	C66.377441,68.438194 66.501144,68.128319 66.624847,67.818443 
	C65.424278,67.179939 64.223709,66.541443 62.737843,66.019669 
	C62.101513,66.732758 61.750477,67.329117 61.052372,67.951630 
	C60.168331,69.039009 59.631363,70.100227 59.045120,71.363350 
	C58.995846,71.565247 58.997528,71.980881 58.997528,71.980881 
	C58.241062,71.966072 57.484600,71.951263 56.252701,71.639984 
	C55.528015,70.945160 55.278759,70.546799 55.029503,70.148438 
z"/>
<path fill="#F7F8F8" opacity="1.000000" stroke="none" 
	d="
M102.179947,68.931259 
	C94.027344,60.966148 93.899864,52.519772 101.711197,44.779957 
	C109.085197,37.473465 116.541077,30.245630 124.099838,23.130768 
	C130.754501,16.866915 139.903458,16.952900 146.050827,23.096985 
	C152.199448,29.242319 152.275253,38.454052 145.778442,44.926708 
	C142.056839,48.634480 137.480621,51.477875 133.701477,55.136360 
	C130.030884,58.689774 127.136383,63.045982 123.458900,66.590958 
	C116.282059,73.509209 111.680229,74.328308 102.179947,68.931259 
M142.055466,39.303474 
	C144.686951,35.161369 144.827911,31.038872 141.101105,27.609560 
	C138.126617,24.872524 134.227722,23.801224 130.775223,26.395037 
	C127.021004,29.215530 123.828239,32.783367 120.390678,36.025356 
	C127.068672,34.513412 130.520386,39.743698 134.496323,47.932678 
	C137.047455,45.058350 139.333923,42.482197 142.055466,39.303474 
M121.669128,59.137775 
	C122.455986,58.296722 123.242844,57.455669 123.484741,57.197113 
	C119.484459,52.838554 115.654610,48.665699 111.373360,44.001007 
	C109.497650,46.012203 106.948532,48.416489 104.796295,51.134987 
	C101.996643,54.671227 101.945374,58.618389 104.704239,62.165245 
	C107.535339,65.804970 111.567451,66.292221 115.499466,64.441399 
	C117.659882,63.424469 119.289169,61.279205 121.669128,59.137775 
M124.341858,48.320538 
	C125.151787,48.539364 125.961716,48.758194 126.771645,48.977020 
	C127.048859,48.601257 127.326073,48.225491 127.603287,47.849728 
	C125.470772,45.614113 123.338257,43.378498 121.205742,41.142879 
	C120.611565,41.647495 120.017387,42.152107 119.423210,42.656719 
	C120.833160,44.436680 122.243103,46.216640 124.341858,48.320538 
z"/>
<path fill="#E9EBEB" opacity="1.000000" stroke="none" 
	d="
M54.651009,70.074966 
	C55.278759,70.546799 55.528015,70.945160 55.884041,71.554230 
	C52.812614,72.091621 49.634415,72.418312 46.456215,72.744995 
	C46.387215,71.830498 46.318214,70.916000 46.249210,70.001503 
	C48.923645,70.001503 51.598076,70.001503 54.651009,70.074966 
z"/>
<path fill="#718080" opacity="1.000000" stroke="none" 
	d="
M62.923958,68.983406 
	C63.353409,70.176743 63.782864,71.370079 64.216911,72.576195 
	C63.751385,72.750870 63.032383,73.020653 62.219936,73.599625 
	C61.104427,73.511169 60.082367,73.113533 59.028915,72.348389 
	C58.997528,71.980881 58.995846,71.565247 59.369743,71.323776 
	C60.173969,71.019455 60.604301,70.956619 61.313683,70.881157 
	C61.752678,70.568420 61.912621,70.268295 62.141701,69.672668 
	C61.940372,68.893280 61.669910,68.409378 61.399445,67.925484 
	C61.750477,67.329117 62.101513,66.732758 62.700161,66.405426 
	C62.939838,67.444107 62.931896,68.213753 62.923958,68.983406 
z"/>
<path fill="#FBFCFC" opacity="1.000000" stroke="none" 
	d="
M342.461365,48.496796 
	C343.295502,46.677181 343.989868,45.178589 344.884583,43.811073 
	C347.312805,40.099739 350.924225,38.649036 355.172028,39.229401 
	C361.874725,40.145176 365.061890,46.254581 363.971588,55.622719 
	C363.231598,61.981232 358.796417,65.589958 352.347382,65.080933 
	C347.249573,64.678566 343.578064,60.788742 343.013550,55.179047 
	C342.802307,53.079681 342.612549,50.978149 342.461365,48.496796 
z"/>
<path fill="#F7F8F8" opacity="1.000000" stroke="none" 
	d="
M272.186859,55.088440 
	C274.220062,54.728542 275.843628,54.422722 277.466736,54.116997 
	C279.086609,62.476685 274.952423,67.255692 266.909485,65.934372 
	C265.151520,65.645569 262.652191,63.841293 262.358917,62.364639 
	C262.067139,60.895531 263.745575,58.429325 265.244965,57.366493 
	C267.043945,56.091301 269.567474,55.838211 272.186859,55.088440 
z"/>
<path fill="#E9EBEB" opacity="1.000000" stroke="none" 
	d="
M63.271408,68.983086 
	C62.931896,68.213753 62.939838,67.444107 62.985458,66.288696 
	C64.223709,66.541443 65.424278,67.179939 66.624847,67.818443 
	C66.501144,68.128319 66.377441,68.438194 66.253738,68.748070 
	C65.375443,68.826302 64.497154,68.904533 63.271408,68.983086 
z"/>
<path fill="#E9EBEB" opacity="1.000000" stroke="none" 
	d="
M61.052372,67.951630 
	C61.669910,68.409378 61.940372,68.893280 61.920010,69.768372 
	C61.333576,70.325424 61.135391,70.570160 61.034630,70.893776 
	C60.604301,70.956619 60.173969,71.019455 59.419018,71.121872 
	C59.631363,70.100227 60.168331,69.039009 61.052372,67.951630 
z"/>
<path fill="#204040" opacity="1.000000" stroke="none" 
	d="
M141.837936,39.604759 
	C139.333923,42.482197 137.047455,45.058350 134.496323,47.932678 
	C130.520386,39.743698 127.068672,34.513412 120.390678,36.025356 
	C123.828239,32.783367 127.021004,29.215530 130.775223,26.395037 
	C134.227722,23.801224 138.126617,24.872524 141.101105,27.609560 
	C144.827911,31.038872 144.686951,35.161369 141.837936,39.604759 
z"/>
<path fill="#1F3F3F" opacity="1.000000" stroke="none" 
	d="
M121.413528,59.390228 
	C119.289169,61.279205 117.659882,63.424469 115.499466,64.441399 
	C111.567451,66.292221 107.535339,65.804970 104.704239,62.165245 
	C101.945374,58.618389 101.996643,54.671227 104.796295,51.134987 
	C106.948532,48.416489 109.497650,46.012203 111.373360,44.001007 
	C115.654610,48.665699 119.484459,52.838554 123.484741,57.197113 
	C123.242844,57.455669 122.455986,58.296722 121.413528,59.390228 
z"/>
<path fill="#1D3D3D" opacity="1.000000" stroke="none" 
	d="
M123.997452,48.158569 
	C122.243103,46.216640 120.833160,44.436680 119.423210,42.656719 
	C120.017387,42.152107 120.611565,41.647495 121.205742,41.142879 
	C123.338257,43.378498 125.470772,45.614113 127.603287,47.849728 
	C127.326073,48.225491 127.048859,48.601257 126.771645,48.977020 
	C125.961716,48.758194 125.151787,48.539364 123.997452,48.158569 
z"/>
<path fill="#FBFBFB" opacity="1.000000" stroke="none" 
	d="
M61.313683,70.881157 
	C61.135391,70.570160 61.333576,70.325424 61.850872,70.063873 
	C61.912621,70.268295 61.752678,70.568420 61.313683,70.881157 
z"/>
</svg>